# xmcd
#
# Track frame offsets:
# 150
# 14214
# 29309
# 43577
# 58312
# 67787
# 78884
# 89241
# 114876
#
# Disc length: 1814 seconds
#
#
# Revision: 0
# Processed by: cddbd v1.5.2PL0 Copyright (c) Steve Scherf et al.
# Submitted via: FreeRIP 2.951 
#
DISCID=73071409
DTITLE=Bobby Solberg - 2
DYEAR=1900
DGENRE=Country
TTITLE0=Up and Down and Around
TTITLE1=Morning Glory
TTITLE2=He's Callin'
TTITLE3=Are you living by His Word?
TTITLE4=Don't Wait on me
TTITLE5=Hardin County Jail
TTITLE6=Living my dreams
TTITLE7=For the rest of your life
TTITLE8=I won't miss the rain
EXTD=
EXTT0=
EXTT1=
EXTT2=
EXTT3=
EXTT4=
EXTT5=
EXTT6=
EXTT7=
EXTT8=
PLAYORDER=
